<svg width="17" height="16" viewBox="0 0 17 16" fill="none" xmlns="http://www.w3.org/2000/svg">
<g clip-path="url(#clip0_56_591)">
<path d="M8.42016 6.09331C9.2735 6.13331 9.4935 6.85998 9.50683 7.19998H10.7002C10.6468 5.87998 9.70683 5.07331 8.40016 5.07331C6.92683 5.07331 5.8335 5.99998 5.8335 8.09331C5.8335 9.38665 6.4535 10.92 8.3935 10.92C9.8735 10.92 10.6668 9.81998 10.6868 8.95331H9.4935C9.4735 9.34665 9.1935 9.87331 8.40683 9.91331C7.5335 9.88665 7.16683 9.20665 7.16683 8.09331C7.16683 6.16665 8.02016 6.10665 8.42016 6.09331ZM8.50016 1.33331C4.82016 1.33331 1.8335 4.31998 1.8335 7.99998C1.8335 11.68 4.82016 14.6666 8.50016 14.6666C12.1802 14.6666 15.1668 11.68 15.1668 7.99998C15.1668 4.31998 12.1802 1.33331 8.50016 1.33331ZM8.50016 13.3333C5.56016 13.3333 3.16683 10.94 3.16683 7.99998C3.16683 5.05998 5.56016 2.66665 8.50016 2.66665C11.4402 2.66665 13.8335 5.05998 13.8335 7.99998C13.8335 10.94 11.4402 13.3333 8.50016 13.3333Z" fill="#323232"/>
</g>
<defs>
<clipPath id="clip0_56_591">
<rect width="16" height="16" fill="white" transform="translate(0.5)"/>
</clipPath>
</defs>
</svg>
