<?xml version="1.0" encoding="UTF-8"?>
<svg id="Capa_1" xmlns="http://www.w3.org/2000/svg" version="1.1" viewBox="0 0 165.4 165.4">
  <!-- Generator: Adobe Illustrator 29.1.0, SVG Export Plug-In . SVG Version: 2.1.0 Build 142)  -->
  <defs>
    <style>
      .st0 {
        fill: #d0122e;
      }

      .st1 {
        fill: #56a5dc;
      }

      .st2 {
        fill: #82bc3d;
      }

      .st3 {
        fill: #f9b036;
      }
    </style>
  </defs>
  <path class="st3" d="M22.6,86.2H4.6c-2.8,0-4.9,2.4-4.7,5.1,4,39,35,70,74,74.1,2.8.3,5.2-1.9,5.2-4.6v-18c0-2.3-1.7-4.3-4-4.6-24.8-3.4-44.5-23.1-47.9-48-.3-2.3-2.3-4-4.6-4h0Z"/>
  <path class="st1" d="M142.7,78.6h18c2.8,0,5-2.4,4.6-5.2C161.1,34.9,130.4,4.2,91.8,0c-2.8-.3-5.2,1.9-5.2,4.6v18c0,2.3,1.7,4.3,4,4.6,24.5,3.5,43.9,22.9,47.5,47.4.3,2.3,2.3,4,4.6,4h0Z"/>
  <path class="st0" d="M86.6,142.8v18c0,2.8,2.4,5,5.2,4.6,38.8-4.2,69.6-35.2,73.6-74.1.3-2.8-1.9-5.1-4.6-5.1h-18c-2.3,0-4.3,1.7-4.6,4-3.3,24.8-22.9,44.4-47.6,47.9-2.3.3-4,2.3-4,4.6h0Z"/>
  <path class="st2" d="M79.1,22.6V4.6c0-2.8-2.4-4.9-5.2-4.6C35.2,4.1,4.3,34.8,0,73.4c-.3,2.8,1.9,5.2,4.6,5.2h18c2.3,0,4.3-1.7,4.6-4,3.6-24.6,23.1-44,47.8-47.4,2.3-.3,4-2.3,4-4.6h0Z"/>
</svg>