<?xml version="1.0" encoding="UTF-8"?>
<svg id="Capa_1" xmlns="http://www.w3.org/2000/svg" version="1.1" viewBox="0 0 830.1 175.3">
  <!-- Generator: Adobe Illustrator 29.1.0, SVG Export Plug-In . SVG Version: 2.1.0 Build 142)  -->
  <defs>
    <style>
      .st0 {
        fill: #d0122e;
      }

      .st1 {
        fill: #010101;
      }

      .st2 {
        fill: #56a5dc;
      }

      .st3 {
        fill: #82bc3d;
      }

      .st4 {
        fill: #f9b036;
      }
    </style>
  </defs>
  <g>
    <path class="st1" d="M207.3,142V25.8h74.4v16.6h-55.6v32.3h50.4v16.6h-50.4v34h55.6v16.6h-74.4Z"/>
    <path class="st1" d="M366.4,142c-4.8,0-8.4-1.4-11-4.1-2.5-2.7-4.1-6.2-4.7-10.4h-.8c-1.7,5.4-4.7,9.5-9.1,12.3-4.4,2.8-9.8,4.2-16.1,4.2-9,0-15.9-2.3-20.7-7s-7.2-10.9-7.2-18.8,3.1-15.1,9.4-19.5,15.5-6.5,27.5-6.5h15.6v-7.3c0-5.3-1.4-9.4-4.3-12.3-2.9-2.9-7.4-4.3-13.5-4.3s-9.3,1.1-12.5,3.3-5.9,5-8.1,8.5l-10.8-9.8c2.9-4.9,6.9-8.9,12.1-12.1,5.2-3.2,12-4.7,20.5-4.7s19.8,2.6,25.8,7.8c6,5.2,9,12.7,9,22.5v43.4h9.1v14.8h-10.1ZM329.8,130.2c5.7,0,10.3-1.2,14-3.7,3.7-2.5,5.5-5.9,5.5-10.1v-12.5h-15.3c-12.5,0-18.8,3.9-18.8,11.6v3c0,3.9,1.3,6.8,3.9,8.7,2.6,1.9,6.2,2.9,10.7,2.9h0Z"/>
    <path class="st1" d="M420.1,144c-8.2,0-15.1-1.4-20.6-4.3-5.5-2.9-10.4-6.9-14.5-12l11.6-10.6c3.2,3.9,6.8,6.9,10.7,9.1s8.5,3.2,13.7,3.2,9.3-1,11.9-3.1c2.6-2,3.9-4.9,3.9-8.6s-.9-5.1-2.8-7.1-5-3.2-9.6-3.8l-8-1c-8.9-1.1-15.8-3.7-20.9-7.7-5-4-7.6-10.1-7.6-18.1s.8-8,2.3-11.2c1.5-3.3,3.7-6,6.6-8.3,2.8-2.3,6.2-4,10.1-5.2s8.3-1.8,13.1-1.8c7.8,0,14.1,1.2,19,3.7s9.4,5.8,13.2,10.1l-11.1,10.6c-2.2-2.7-5.1-5-8.7-6.9s-7.7-2.9-12.4-2.9-8.7,1-11.1,3-3.6,4.6-3.6,7.8,1,5.8,3.2,7.5c2.1,1.7,5.5,2.9,10.1,3.7l8,1c9.5,1.4,16.5,4.2,20.9,8.4,4.4,4.2,6.6,9.7,6.6,16.7s-.8,8-2.4,11.4c-1.6,3.4-3.9,6.3-6.9,8.7s-6.6,4.3-10.8,5.7c-4.2,1.3-8.9,2-14.1,2h0Z"/>
    <path class="st1" d="M524,55.5h17.5l-36.4,103.7c-1,2.9-2.1,5.4-3.4,7.4-1.3,2-2.8,3.7-4.5,5-1.7,1.3-3.8,2.2-6.2,2.8s-5.3.9-8.6.9h-10.5v-14.8h14.6l5-14.6-31.5-90.4h18.1l17.3,50.9,5,18.8h.8l5.5-18.8,17.3-50.9h0Z"/>
    <path class="st1" d="M590.8,144c-9.8,0-18.1-1.8-24.9-5.3s-12.7-8.3-17.6-14.3l13-12.1c4.1,5,8.6,8.8,13.6,11.3,4.9,2.5,10.6,3.8,16.9,3.8s13-1.7,16.8-5c3.8-3.3,5.7-7.8,5.7-13.5s-1.3-8.1-4-10.8c-2.7-2.7-7.4-4.7-14.2-6l-10.3-1.8c-11.3-2.1-19.8-5.8-25.5-11.1-5.7-5.3-8.5-12.6-8.5-22s1-9.7,2.9-13.9c1.9-4.2,4.7-7.6,8.2-10.5,3.5-2.8,7.7-5,12.7-6.6s10.6-2.3,16.8-2.3,16.4,1.5,22.8,4.6c6.4,3.1,11.9,7.5,16.5,13.2l-13.2,11.6c-3-3.9-6.7-7-11-9.3-4.3-2.3-9.7-3.5-16.1-3.5s-11.8,1.3-15.5,4-5.5,6.5-5.5,11.6,1.5,8.5,4.5,10.9c3,2.4,7.7,4.2,14,5.4l10.3,2.2c11.7,2.2,20.2,6,25.5,11.3,5.4,5.3,8.1,12.6,8.1,22s-.9,10.4-2.8,14.8-4.6,8.2-8.2,11.4-8,5.6-13.2,7.3c-5.2,1.7-11.2,2.6-17.8,2.6h0Z"/>
    <path class="st1" d="M778.7,31.7v-14.8h-14.3c-7.3,0-12.8,2-16.5,5.9s-5.5,9.4-5.5,16.4v14.3h-59.3c-.8,0-1.6,0-2.4,0-6,0-11.5,1.1-16.4,3.2-4.9,2.1-9.1,5.1-12.6,9.1-3.4,3.9-6.1,8.7-8,14.3s-2.8,11.8-2.8,18.7.9,13.1,2.8,18.7c1.9,5.6,4.5,10.4,8,14.3s7.6,7,12.6,9.1c4.9,2.1,10.4,3.2,16.4,3.2s11.5-1.1,16.4-3.2c4.9-2.1,9.1-5.1,12.6-9.1s6.1-8.7,8-14.3c1.9-5.6,2.8-11.8,2.8-18.7s-.9-13.1-2.8-18.7c-1.5-4.4-3.5-8.3-5.9-11.7h30.7v75.9h18.1v-75.9h18.1v-14.8h-18.1v-21.8h18.1,0ZM701.4,106c0,7.6-1.9,13.3-5.7,17.1-3.8,3.8-8.8,5.7-15,5.7s-11.2-1.9-15-5.7c-3.8-3.8-5.7-9.5-5.7-17.1v-14.6c0-7.6,1.9-13.3,5.7-17.1,3.8-3.8,8.8-5.7,15-5.7s11.2,1.9,15,5.7c3.8,3.8,5.7,9.5,5.7,17.1v14.6Z"/>
    <path class="st1" d="M813,144.2c-6.3,0-11.1-1.6-14.3-4.9s-4.8-7.9-4.8-13.9v-57h-5.7v-14.8h-.4c3,0,5.1-.7,6.2-2s1.8-3.5,1.8-6.5v-15.1h16.3v23.6h18.1v14.8h-18.1v61h16.8v14.8h-15.8Z"/>
  </g>
  <g>
    <path class="st4" d="M22.9,86.3H4.9c-2.8,0-4.9,2.4-4.7,5.1,4,39,35,70,74,74.1,2.8.3,5.2-1.9,5.2-4.6v-18c0-2.3-1.7-4.3-4-4.6-24.8-3.4-44.5-23.1-47.9-48-.3-2.3-2.3-4-4.6-4h0Z"/>
    <path class="st2" d="M143.1,78.7h18c2.8,0,5-2.4,4.6-5.2C161.4,34.9,130.7,4.3,92.2,0c-2.8-.3-5.2,1.9-5.2,4.6v18c0,2.3,1.7,4.3,4,4.6,24.5,3.5,43.9,22.9,47.5,47.4.3,2.3,2.3,4,4.6,4h0Z"/>
    <path class="st0" d="M87,142.8v18c0,2.8,2.4,5,5.2,4.6,38.8-4.2,69.6-35.2,73.6-74.1.3-2.8-1.9-5.1-4.6-5.1h-18c-2.3,0-4.3,1.7-4.6,4-3.3,24.8-22.9,44.4-47.6,47.9-2.3.3-4,2.3-4,4.6h0Z"/>
    <path class="st3" d="M79.4,22.7V4.7c0-2.8-2.4-4.9-5.2-4.6C35.5,4.1,4.6,34.8.3,73.5c-.3,2.8,1.9,5.2,4.6,5.2h18c2.3,0,4.3-1.7,4.6-4,3.6-24.6,23.1-44,47.8-47.4,2.3-.3,4-2.3,4-4.6h0Z"/>
  </g>
</svg>