<?xml version="1.0" encoding="UTF-8"?>
<svg id="Capa_1" xmlns="http://www.w3.org/2000/svg" version="1.1" viewBox="0 0 24 24">
  <!-- Generator: Adobe Illustrator 29.1.0, SVG Export Plug-In . SVG Version: 2.1.0 Build 142)  -->
  <defs>
    <style>
      .st0 {
        fill: #6574cd;
      }

      .st1 {
        fill: #fff;
      }
    </style>
  </defs>
  <path class="st0" d="M12,0C5.4,0,0,5.4,0,12s5.4,12,12,12,12-5.4,12-12S18.6,0,12,0Z"/>
  <path class="st1" d="M14.2,5.5c.3-.3.7-.3.9,0l3.3,3.3c.3.3.3.7,0,.9l-8.7,8.7c-.1.1-.3.2-.5.2h-3.3c-.4,0-.7-.3-.7-.7v-3.3c0-.2,0-.3.2-.5L14.2,5.5ZM13.6,8l2.4,2.4,1.1-1.1-2.4-2.4-1.1,1.1ZM15.1,11.3l-2.4-2.4-6,6v2.4h2.4l6-6Z"/>
</svg>