<?xml version="1.0" encoding="UTF-8"?>
<svg id="Capa_1" xmlns="http://www.w3.org/2000/svg" version="1.1" viewBox="0 0 24 24">
  <!-- Generator: Adobe Illustrator 29.1.0, SVG Export Plug-In . SVG Version: 2.1.0 Build 142)  -->
  <defs>
    <style>
      .st0 {
        fill: #fff;
        fill-rule: evenodd;
      }

      .st1 {
        fill: #345c14;
      }
    </style>
  </defs>
  <path class="st1" d="M12,0C5.4,0,0,5.4,0,12s5.4,12,12,12,12-5.4,12-12S18.6,0,12,0Z"/>
  <path class="st0" d="M17.8,7.5c.3.3.3.7,0,.9l-7.3,7.3c-.3.3-.7.3-.9,0l-3.3-3.3c-.3-.3-.3-.7,0-.9.3-.3.7-.3.9,0l2.9,2.9,6.9-6.9c.3-.3.7-.3.9,0Z"/>
</svg>