<?xml version="1.0" encoding="UTF-8"?>
<svg id="Capa_1" xmlns="http://www.w3.org/2000/svg" version="1.1" viewBox="0 0 24 24">
  <!-- Generator: Adobe Illustrator 29.1.0, SVG Export Plug-In . SVG Version: 2.1.0 Build 142)  -->
  <defs>
    <style>
      .st0 {
        fill: #fff;
      }

      .st1 {
        fill: #bdc2c6;
      }
    </style>
  </defs>
  <path class="st1" d="M12,24C5.4,24,0,18.6,0,12S5.4,0,12,0s12,5.4,12,12-5.4,12-12,12Z"/>
  <path class="st0" d="M12,12.2c-.2,0-.4,0-.5.2-.1.1-.2.3-.2.5v2.2c0,.2,0,.4.2.5.1.1.3.2.5.2s.4,0,.5-.2c.1-.1.2-.3.2-.5v-2.2c0-.2,0-.4-.2-.5-.1-.1-.3-.2-.5-.2ZM15.8,9.2v-1.5c0-1-.4-1.9-1.1-2.7-.7-.7-1.7-1.1-2.7-1.1s-1.9.4-2.7,1.1c-.7.7-1.1,1.7-1.1,2.7v1.5c-.6,0-1.2.2-1.6.7-.4.4-.7,1-.7,1.6v5.2c0,.6.2,1.2.7,1.6.4.4,1,.7,1.6.7h7.5c.6,0,1.2-.2,1.6-.7.4-.4.7-1,.7-1.6v-5.2c0-.6-.2-1.2-.7-1.6-.4-.4-1-.7-1.6-.7ZM9.8,7.7c0-.6.2-1.2.7-1.6.4-.4,1-.7,1.6-.7s1.2.2,1.6.7c.4.4.7,1,.7,1.6v1.5h-4.5v-1.5ZM16.5,16.7c0,.2,0,.4-.2.5-.1.1-.3.2-.5.2h-7.5c-.2,0-.4,0-.5-.2-.1-.1-.2-.3-.2-.5v-5.2c0-.2,0-.4.2-.5.1-.1.3-.2.5-.2h7.5c.2,0,.4,0,.5.2.1.1.2.3.2.5v5.2Z"/>
</svg>