<?xml version="1.0" encoding="UTF-8"?>
<svg id="Capa_1" xmlns="http://www.w3.org/2000/svg" version="1.1" viewBox="0 0 24 24">
  <!-- Generator: Adobe Illustrator 29.1.0, SVG Export Plug-In . SVG Version: 2.1.0 Build 142)  -->
  <defs>
    <style>
      .st0 {
        fill: #6c757d;
      }
    </style>
  </defs>
  <path class="st0" d="M12,3.8C6.5,3.8,1.9,7.2,0,12c1.9,4.8,6.5,8.2,12,8.2s10.1-3.4,12-8.2c-1.9-4.8-6.5-8.2-12-8.2ZM12,17.5c-3,0-5.5-2.4-5.5-5.5s2.4-5.5,5.5-5.5,5.5,2.4,5.5,5.5-2.4,5.5-5.5,5.5ZM12,8.7c-1.8,0-3.3,1.5-3.3,3.3s1.5,3.3,3.3,3.3,3.3-1.5,3.3-3.3-1.5-3.3-3.3-3.3Z"/>
</svg>